# xmcd
#
# Track frame offsets: 
#        150
#        14997
#        22832
#        32027
#        41315
#        51072
#        66507
#        78715
#        94572
#        109812
#        120857
#        137777
#        150357
#        160865
#        171062
#        188332
#        200942
#        214497
#        226445
#        239995
#
# Disc length: 3447 seconds
#
# Revision: 0
# Processed by: cddbd v1.5.2PL0 Copyright (c) Steve Scherf et al.
# Submitted via: ExactAudioCopyFreeDBPlugin 1.0
#
DISCID=130d7514
DTITLE=キング男声合唱団他 - 軍歌メモリアル
DYEAR=1900
DGENRE=Country
TTITLE0=歩兵の本領
TTITLE1=艦船勤務
TTITLE2=軍人勅諭の歌
TTITLE3=青年日本の歌
TTITLE4=進軍
TTITLE5=満州行進曲
TTITLE6=討匪行
TTITLE7=爆弾三勇士
TTITLE8=満州思えば
TTITLE9=護れ大空
TTITLE10=あゝ我が戦友
TTITLE11=露営の歌
TTITLE12=進軍の歌
TTITLE13=愛国行進曲
TTITLE14=軍国子守唄
TTITLE15=上海便り
TTITLE16=母子船頭唄
TTITLE17=荒鷲の歌
TTITLE18=日の丸行進曲
TTITLE19=出征兵士を送る歌
EXTD=
EXTT0=
EXTT1=
EXTT2=
EXTT3=
EXTT4=
EXTT5=
EXTT6=
EXTT7=
EXTT8=
EXTT9=
EXTT10=
EXTT11=
EXTT12=
EXTT13=
EXTT14=
EXTT15=
EXTT16=
EXTT17=
EXTT18=
EXTT19=
PLAYORDER=
